<svg width="1080" height="1428" viewBox="0 0 1080 1428" fill="none" xmlns="http://www.w3.org/2000/svg">
<g clip-path="url(#clip0_49_722)">
<rect width="1080" height="1428" fill="#151515"/>
<rect width="1080" height="1080" transform="translate(0 148)" fill="#151515"/>
<circle cx="235.63" cy="916.185" r="45.6296" transform="rotate(-90 235.63 916.185)" fill="#212121"/>
<circle cx="387.676" cy="916.185" r="45.6296" transform="rotate(-90 387.676 916.185)" fill="#212121"/>
<circle cx="539.481" cy="916.185" r="45.6296" transform="rotate(-90 539.481 916.185)" fill="#212121"/>
<circle cx="691.768" cy="916.185" r="45.6296" transform="rotate(-90 691.768 916.185)" fill="#212121"/>
<circle cx="843.814" cy="916.185" r="45.6296" transform="rotate(-90 843.814 916.185)" fill="#212121"/>
<circle cx="235.63" cy="764.135" r="45.6296" transform="rotate(-90 235.63 764.135)" fill="#212121"/>
<circle cx="387.676" cy="764.135" r="45.6296" transform="rotate(-90 387.676 764.135)" fill="#212121"/>
<circle cx="691.768" cy="764.135" r="45.6296" transform="rotate(-90 691.768 764.135)" fill="#212121"/>
<circle cx="539.481" cy="1068.37" r="45.6296" transform="rotate(-90 539.481 1068.37)" fill="#D73534"/>
<circle cx="843.814" cy="764.135" r="45.6296" transform="rotate(-90 843.814 764.135)" fill="#212121"/>
<circle cx="235.63" cy="612.089" r="45.6296" transform="rotate(-90 235.63 612.089)" fill="#212121"/>
<circle cx="387.676" cy="612.089" r="45.6296" transform="rotate(-90 387.676 612.089)" fill="#212121"/>
<circle cx="539.722" cy="612.089" r="45.6296" transform="rotate(-90 539.722 612.089)" fill="#212121"/>
<circle cx="691.768" cy="612.089" r="45.6296" transform="rotate(-90 691.768 612.089)" fill="#212121"/>
<circle cx="843.814" cy="612.089" r="45.6296" transform="rotate(-90 843.814 612.089)" fill="#212121"/>
<circle cx="235.63" cy="460.042" r="45.6296" transform="rotate(-90 235.63 460.042)" fill="#212121"/>
<circle cx="387.676" cy="460.042" r="45.6296" transform="rotate(-90 387.676 460.042)" fill="#212121"/>
<circle cx="539.722" cy="460.042" r="45.6296" transform="rotate(-90 539.722 460.042)" fill="#212121"/>
<circle cx="691.768" cy="460.042" r="45.6296" transform="rotate(-90 691.768 460.042)" fill="#212121"/>
<circle cx="843.814" cy="460.042" r="45.6296" transform="rotate(-90 843.814 460.042)" fill="#212121"/>
<circle cx="235.63" cy="307.999" r="45.6296" transform="rotate(-90 235.63 307.999)" fill="#212121"/>
<circle cx="387.676" cy="307.999" r="45.6296" transform="rotate(-90 387.676 307.999)" fill="#212121"/>
<circle cx="539.722" cy="307.999" r="45.6296" transform="rotate(-90 539.722 307.999)" fill="#212121"/>
<circle cx="691.768" cy="307.999" r="45.6296" transform="rotate(-90 691.768 307.999)" fill="#212121"/>
<circle cx="843.814" cy="307.999" r="45.6296" transform="rotate(-90 843.814 307.999)" fill="#212121"/>
</g>
<defs>
<clipPath id="clip0_49_722">
<rect width="1080" height="1428" fill="white"/>
</clipPath>
</defs>
</svg>
