<svg width="1321" height="743" viewBox="0 0 1321 743" fill="none" xmlns="http://www.w3.org/2000/svg">
<g clip-path="url(#clip0_54_12)">
<rect width="1321" height="743" fill="#0C0C0C"/>
<path d="M1253.8 -186.205C1231.45 -186.205 1210.28 -175.127 1197.19 -156.575C1193.56 -151.425 1190.72 -145.913 1188.69 -140.172C1186.38 -142.334 1183.91 -144.343 1181.29 -146.176C1169.76 -154.239 1156.06 -158.5 1141.67 -158.5C1127.29 -158.5 1113.59 -154.239 1102.06 -146.176C1099.43 -144.343 1096.97 -142.335 1094.66 -140.172C1092.63 -145.915 1089.79 -151.428 1086.16 -156.577C1073.07 -175.129 1051.9 -186.205 1029.54 -186.205C1028.3 -186.205 1027.06 -186.162 1025.83 -186.094C1025.9 -211.099 1047.51 -230.689 1071.22 -230.689C1080.37 -230.689 1089.83 -227.77 1098.48 -221.112C1104.82 -242.648 1123.25 -253.416 1141.67 -253.416C1160.1 -253.416 1178.53 -242.648 1184.87 -221.112C1193.52 -227.767 1202.98 -230.689 1212.13 -230.689C1235.84 -230.689 1257.45 -211.101 1257.52 -186.094C1256.28 -186.162 1255.05 -186.205 1253.8 -186.205ZM1257.52 -67.6381C1256.29 -67.7068 1255.05 -67.7492 1253.81 -67.7492C1231.45 -67.7492 1210.28 -56.6716 1197.19 -38.1183C1193.56 -32.9693 1190.72 -27.4558 1188.69 -21.7135C1186.38 -23.8781 1183.91 -25.8861 1181.29 -27.7207C1169.76 -35.7818 1156.06 -40.0427 1141.67 -40.0427C1127.29 -40.0427 1113.59 -35.7818 1102.06 -27.7207C1099.43 -25.8861 1096.97 -23.8781 1094.66 -21.7151C1092.63 -27.4574 1089.79 -32.9709 1086.16 -38.1198C1073.07 -56.6715 1051.9 -67.7492 1029.54 -67.7492C1028.3 -67.7492 1027.06 -67.7068 1025.83 -67.6381C1025.9 -92.6436 1047.51 -112.234 1071.22 -112.234C1080.37 -112.234 1089.83 -109.312 1098.48 -102.657C1104.82 -124.193 1123.25 -134.96 1141.67 -134.96C1160.1 -134.96 1178.53 -124.193 1184.87 -102.657C1193.52 -109.312 1202.98 -112.234 1212.13 -112.234C1235.84 -112.234 1257.45 -92.6452 1257.52 -67.6381V-67.6381ZM1257.52 50.8192C1256.28 50.7505 1255.05 50.7078 1253.8 50.7078C1231.45 50.7078 1210.28 61.7839 1197.19 80.3391C1193.56 85.4861 1190.72 90.9996 1188.69 96.7423C1186.38 94.5789 1183.91 92.5693 1181.29 90.7363C1169.76 82.6756 1156.06 78.4147 1141.67 78.4147C1127.29 78.4147 1113.59 82.6756 1102.06 90.7363C1099.43 92.5693 1096.97 94.5789 1094.66 96.7403C1092.63 90.998 1089.79 85.4845 1086.16 80.3371C1073.07 61.7839 1051.9 50.7078 1029.54 50.7078C1028.3 50.7078 1027.06 50.7505 1025.83 50.8192C1025.9 25.8122 1047.51 6.22528 1071.22 6.22528C1080.37 6.22528 1089.83 9.14412 1098.48 15.8004C1104.82 -5.73531 1123.25 -16.5026 1141.67 -16.5026C1160.1 -16.5026 1178.53 -5.73531 1184.87 15.8004C1193.52 9.14569 1202.98 6.22528 1212.13 6.22528C1235.84 6.22528 1257.45 25.8122 1257.52 50.8192V50.8192ZM1257.52 169.275C1256.28 169.206 1255.05 169.165 1253.8 169.165C1231.45 169.165 1210.28 180.241 1197.19 198.794C1193.56 203.945 1190.72 209.459 1188.69 215.199C1186.38 213.036 1183.91 211.028 1181.29 209.192C1169.76 201.133 1156.06 196.87 1141.67 196.87C1127.29 196.87 1113.59 201.133 1102.06 209.192C1099.43 211.028 1096.97 213.036 1094.66 215.198C1092.63 209.457 1089.79 203.943 1086.16 198.793C1073.07 180.241 1051.9 169.165 1029.54 169.165C1028.3 169.165 1027.06 169.206 1025.83 169.275C1025.9 144.269 1047.51 124.681 1071.22 124.681C1080.37 124.681 1089.83 127.601 1098.48 134.256C1104.82 112.72 1123.25 101.955 1141.67 101.955C1160.1 101.955 1178.53 112.72 1184.87 134.256C1193.52 127.603 1202.98 124.681 1212.13 124.681C1235.84 124.681 1257.45 144.268 1257.52 169.275V169.275ZM1257.52 287.734C1256.29 287.665 1255.05 287.621 1253.8 287.621C1231.45 287.621 1210.28 298.698 1197.19 317.251C1193.56 322.4 1190.72 327.914 1188.69 333.657C1186.38 331.492 1183.91 329.484 1181.29 327.649C1169.76 319.588 1156.06 315.329 1141.67 315.329C1127.29 315.329 1113.59 319.588 1102.06 327.649C1099.43 329.484 1096.97 331.492 1094.66 333.655C1092.63 327.912 1089.79 322.399 1086.16 317.25C1073.07 298.698 1051.9 287.621 1029.54 287.621C1028.3 287.621 1027.06 287.665 1025.83 287.734C1025.9 262.727 1047.51 243.138 1071.22 243.138C1080.37 243.138 1089.83 246.056 1098.48 252.715C1104.82 231.179 1123.25 220.41 1141.67 220.41C1160.1 220.41 1178.53 231.179 1184.87 252.715C1193.52 246.058 1202.98 243.138 1212.13 243.138C1235.84 243.138 1257.45 262.727 1257.52 287.734V287.734ZM1257.52 406.189C1256.29 406.12 1255.05 406.079 1253.8 406.079C1231.45 406.079 1210.28 417.156 1197.19 435.709C1193.56 440.858 1190.72 446.371 1188.69 452.114C1186.38 449.951 1183.91 447.941 1181.29 446.106C1169.76 438.045 1156.06 433.784 1141.67 433.784C1127.29 433.784 1113.59 438.045 1102.06 446.106C1099.43 447.939 1096.97 449.949 1094.66 452.112C1092.63 446.37 1089.79 440.856 1086.16 435.707C1073.07 417.154 1051.9 406.079 1029.54 406.079C1028.3 406.079 1027.06 406.12 1025.83 406.189C1025.9 381.183 1047.51 361.593 1071.22 361.593C1080.37 361.593 1089.83 364.515 1098.48 371.17C1104.82 349.634 1123.25 338.868 1141.67 338.868C1160.1 338.868 1178.53 349.634 1184.87 371.17C1193.52 364.517 1202.98 361.593 1212.13 361.593C1235.84 361.593 1257.45 381.182 1257.52 406.189ZM1257.52 524.654C1256.29 524.574 1255.05 524.54 1253.8 524.54C1231.45 524.54 1210.28 535.611 1197.19 554.168C1193.56 559.318 1190.72 564.828 1188.69 570.567C1186.38 568.409 1183.91 566.398 1181.29 564.567C1169.76 556.506 1156.06 552.238 1141.67 552.238C1127.29 552.238 1113.59 556.506 1102.06 564.567C1099.43 566.398 1096.97 568.409 1094.66 570.567C1092.63 564.828 1089.79 559.318 1086.16 554.168C1073.07 535.611 1051.9 524.54 1029.54 524.54C1028.3 524.54 1027.06 524.574 1025.83 524.654C1025.9 499.637 1047.51 480.049 1071.22 480.049C1080.37 480.049 1089.83 482.976 1098.48 489.631C1104.82 468.096 1123.25 457.323 1141.67 457.323C1160.1 457.323 1178.53 468.096 1184.87 489.631C1193.52 482.976 1202.98 480.049 1212.13 480.049C1235.84 480.049 1257.45 499.637 1257.52 524.654V524.654ZM1257.52 643.1C1256.29 643.035 1255.05 642.986 1253.8 642.986C1231.45 642.986 1210.28 654.071 1197.19 672.63C1193.56 677.764 1190.72 683.29 1188.69 689.029C1186.38 686.871 1183.91 684.86 1181.29 683.012C1169.76 674.951 1156.06 670.7 1141.67 670.7C1127.29 670.7 1113.59 674.951 1102.06 683.012C1099.43 684.86 1096.97 686.855 1094.66 689.029C1092.63 683.29 1089.79 677.764 1086.16 672.613C1073.07 654.071 1051.9 642.986 1029.54 642.986C1028.3 642.986 1027.06 643.035 1025.83 643.1C1025.9 618.099 1047.51 598.511 1071.22 598.511C1080.37 598.511 1089.83 601.422 1098.48 608.077C1104.82 586.542 1123.25 575.783 1141.67 575.783C1160.1 575.783 1178.53 586.542 1184.87 608.077C1193.52 601.438 1202.98 598.511 1212.13 598.511C1235.84 598.511 1257.45 618.099 1257.52 643.1V643.1ZM1257.52 761.562C1256.28 761.497 1255.05 761.448 1253.8 761.448C1231.45 761.448 1210.28 772.517 1197.19 791.075C1193.56 796.226 1190.72 801.736 1188.69 807.475C1186.38 805.317 1183.91 803.306 1181.29 801.475C1169.76 793.413 1156.06 789.162 1141.67 789.162C1127.29 789.162 1113.59 793.413 1102.06 801.475C1099.43 803.306 1096.97 805.317 1094.66 807.475C1092.63 801.736 1089.79 796.226 1086.16 791.075C1073.07 772.517 1051.9 761.448 1029.54 761.448C1028.3 761.448 1027.06 761.497 1025.83 761.562C1025.9 736.545 1047.51 716.957 1071.22 716.957C1080.37 716.957 1089.83 719.884 1098.48 726.539C1104.82 705.005 1123.25 694.229 1141.67 694.229C1160.1 694.229 1178.53 705.005 1184.87 726.539C1193.52 719.884 1202.98 716.957 1212.13 716.957C1235.84 716.957 1257.45 736.545 1257.52 761.562V761.562ZM1257.52 880.024C1256.29 879.942 1255.05 879.91 1253.8 879.91C1231.45 879.91 1210.28 890.979 1197.19 909.537C1193.56 914.688 1190.72 920.198 1188.69 925.938C1186.38 923.779 1183.91 921.768 1181.29 919.937C1169.76 911.876 1156.06 907.608 1141.67 907.608C1127.29 907.608 1113.59 911.876 1102.06 919.937C1099.43 921.768 1096.97 923.779 1094.66 925.938C1092.63 920.198 1089.79 914.688 1086.16 909.537C1073.07 890.979 1051.9 879.91 1029.54 879.91C1028.3 879.91 1027.06 879.942 1025.83 880.024C1025.9 855.007 1047.51 835.419 1071.22 835.419C1080.37 835.419 1089.83 838.346 1098.48 845.001C1104.82 823.467 1123.25 812.691 1141.67 812.691C1160.1 812.691 1178.53 823.467 1184.87 845.001C1193.52 838.346 1202.98 835.419 1212.13 835.419C1235.84 835.419 1257.45 855.007 1257.52 880.024V880.024ZM1014.6 959.964C1007.96 969.382 1003.97 979.994 1002.72 991.014C1001.42 989.951 1000.08 988.921 998.7 987.956C987.167 979.895 973.467 975.628 959.083 975.628C944.7 975.628 931 979.895 919.468 987.956C918.083 988.921 916.751 989.951 915.454 991.014C914.198 979.994 910.206 969.365 903.567 959.964C890.505 941.454 869.403 930.385 847.098 930.336C854.365 914.377 870.914 903.438 888.623 903.438C897.777 903.438 907.238 906.366 915.887 913.02C922.232 891.486 940.659 880.711 959.083 880.711C977.509 880.711 995.934 891.486 1002.28 913.02C1010.92 906.366 1020.39 903.438 1029.54 903.438C1047.26 903.438 1063.8 914.377 1071.07 930.336C1048.77 930.385 1027.67 941.454 1014.6 959.964ZM832.01 909.537C828.378 914.688 825.541 920.198 823.505 925.938C821.199 923.779 818.732 921.768 816.109 919.937C804.576 911.876 790.877 907.608 776.494 907.608C762.109 907.608 748.411 911.876 736.879 919.937C734.254 921.768 731.789 923.779 729.483 925.938C727.447 920.198 724.613 914.688 720.978 909.537C707.885 890.979 686.722 879.91 664.364 879.91C663.121 879.91 661.883 879.942 660.648 880.024C660.72 855.007 682.331 835.419 706.034 835.419C715.188 835.419 724.649 838.346 733.298 845.001C739.642 823.467 758.068 812.691 776.494 812.691C794.92 812.691 813.344 823.467 819.689 845.001C828.335 838.346 837.802 835.419 846.953 835.419C870.658 835.419 892.268 855.007 892.34 880.024C891.105 879.942 889.866 879.91 888.623 879.91C866.268 879.91 845.103 890.979 832.01 909.537ZM649.419 959.964C642.783 969.382 638.79 979.994 637.536 991.014C636.238 989.951 634.903 988.921 633.52 987.956C621.987 979.895 608.287 975.628 593.903 975.628C579.52 975.628 565.821 979.895 554.288 987.956C552.903 988.921 551.569 989.951 550.272 991.014C549.016 979.994 545.025 969.365 538.387 959.964C525.322 941.454 504.221 930.385 481.916 930.336C489.185 914.377 505.734 903.438 523.445 903.438C532.595 903.438 542.058 906.366 550.707 913.02C557.052 891.486 575.477 880.711 593.903 880.711C612.33 880.711 630.755 891.486 637.099 913.02C645.746 906.366 655.211 903.438 664.364 903.438C682.076 903.438 698.625 914.377 705.89 930.336C683.587 930.385 662.483 941.454 649.419 959.964ZM466.83 909.537C463.196 914.688 460.359 920.198 458.325 925.938C456.018 923.779 453.552 921.768 450.929 919.937C439.396 911.876 425.696 907.608 411.312 907.608C396.929 907.608 383.231 911.876 371.697 919.937C369.074 921.768 366.609 923.779 364.301 925.938C362.267 920.198 359.431 914.688 355.798 909.537C342.705 890.979 321.54 879.91 299.182 879.91C297.939 879.91 296.701 879.942 295.468 880.024C295.54 855.007 317.151 835.419 340.854 835.419C350.008 835.419 359.468 838.346 368.116 845.001C374.462 823.467 392.887 812.691 411.312 812.691C429.738 812.691 448.164 823.467 454.509 845.001C463.156 838.346 472.622 835.419 481.773 835.419C505.479 835.419 527.088 855.007 527.156 880.024C525.922 879.942 524.686 879.91 523.445 879.91C501.086 879.91 479.923 890.979 466.83 909.537V909.537ZM284.239 959.964C277.602 969.382 273.61 979.994 272.354 991.014C271.058 989.951 269.723 988.921 268.338 987.956C256.805 979.895 243.107 975.628 228.723 975.628C214.34 975.628 200.64 979.895 189.108 987.956C187.723 988.921 186.389 989.951 185.092 991.014C183.836 979.994 179.845 969.365 173.207 959.964C160.143 941.454 139.041 930.385 116.736 930.336C124.005 914.377 140.552 903.438 158.263 903.438C167.417 903.438 176.878 906.366 185.527 913.02C191.872 891.486 210.297 880.711 228.723 880.711C247.149 880.711 265.573 891.486 271.919 913.02C280.565 906.366 290.031 903.438 299.182 903.438C316.896 903.438 333.443 914.377 340.711 930.336C318.407 930.385 297.304 941.454 284.239 959.964V959.964ZM116.736 811.89C124.005 795.932 140.552 784.993 158.263 784.993C167.417 784.993 176.878 787.903 185.527 794.558C191.872 773.024 210.297 762.265 228.723 762.265C247.149 762.265 265.573 773.024 271.919 794.558C280.565 787.903 290.031 784.993 299.182 784.993C316.896 784.993 333.443 795.932 340.711 811.89C318.407 811.939 297.304 822.992 284.239 841.518C277.602 850.92 273.61 861.531 272.354 872.552C271.058 871.489 269.723 870.475 268.338 869.494C256.805 861.433 243.107 857.182 228.723 857.182C214.34 857.182 200.64 861.433 189.108 869.494C187.723 870.475 186.389 871.489 185.092 872.552C183.836 861.531 179.845 850.92 173.207 841.518C160.143 822.992 139.041 811.939 116.736 811.89V811.89ZM116.736 693.428C124.005 677.47 140.552 666.531 158.263 666.531C167.417 666.531 176.878 669.457 185.527 676.113C191.872 654.578 210.297 643.803 228.723 643.803C247.149 643.803 265.573 654.578 271.919 676.113C280.565 669.457 290.031 666.531 299.182 666.531C316.896 666.531 333.443 677.47 340.711 693.428C318.406 693.477 297.304 704.547 284.239 723.056C277.602 732.458 273.61 743.085 272.354 754.09C271.058 753.027 269.723 752.013 268.338 751.048C256.805 742.987 243.107 738.72 228.723 738.72C214.34 738.72 200.64 742.987 189.108 751.048C187.723 752.013 186.389 753.027 185.092 754.09C183.836 743.085 179.845 732.458 173.207 723.056C160.143 704.547 139.041 693.477 116.736 693.428V693.428ZM116.736 574.966C124.005 559.007 140.552 548.069 158.263 548.069C167.417 548.069 176.878 550.995 185.527 557.65C191.872 536.116 210.297 525.341 228.723 525.341C247.149 525.341 265.573 536.116 271.919 557.65C280.565 550.995 290.031 548.069 299.182 548.069C316.896 548.069 333.443 559.007 340.711 574.966C318.406 575.015 297.304 586.085 284.239 604.594C277.602 614.012 273.61 624.623 272.354 635.644C271.058 634.581 269.723 633.551 268.338 632.586C256.805 624.525 243.107 620.258 228.723 620.258C214.34 620.258 200.64 624.525 189.106 632.586C187.722 633.551 186.389 634.581 185.092 635.644C183.836 624.623 179.845 613.995 173.207 604.594C160.143 586.085 139.041 575.015 116.736 574.966V574.966ZM116.736 456.515C124.005 440.555 140.552 429.618 158.263 429.618C167.417 429.618 176.878 432.537 185.527 439.193C191.872 417.659 210.297 406.892 228.723 406.892C247.149 406.892 265.573 417.659 271.919 439.193C280.565 432.54 290.031 429.618 299.182 429.618C316.896 429.618 333.443 440.555 340.711 456.515C318.406 456.564 297.304 467.622 284.239 486.148C277.602 495.55 273.61 506.161 272.354 517.182C271.058 516.119 269.723 515.105 268.338 514.124C256.805 506.063 243.107 501.812 228.723 501.812C214.34 501.812 200.64 506.063 189.108 514.124C187.723 515.105 186.389 516.119 185.092 517.182C183.836 506.161 179.845 495.55 173.207 486.148C160.143 467.622 139.041 456.564 116.736 456.515V456.515ZM116.736 338.06C124.005 322.098 140.552 311.161 158.263 311.161C167.417 311.161 176.878 314.081 185.527 320.738C191.872 299.202 210.297 288.433 228.723 288.433C247.149 288.433 265.573 299.202 271.919 320.738C280.565 314.083 290.031 311.161 299.182 311.161C316.896 311.161 333.443 322.098 340.711 338.06C318.407 338.105 297.304 349.172 284.239 367.684C277.602 377.091 273.61 387.707 272.354 398.725C271.058 397.665 269.723 396.642 268.338 395.674C256.805 387.613 243.107 383.352 228.723 383.352C214.34 383.352 200.64 387.613 189.108 395.674C187.723 396.642 186.389 397.665 185.092 398.725C183.836 387.706 179.845 377.089 173.207 367.684C160.143 349.172 139.041 338.107 116.736 338.06V338.06ZM116.736 219.603C124.005 203.642 140.552 192.704 158.263 192.704C167.417 192.704 176.878 195.626 185.527 202.28C191.872 180.745 210.297 169.978 228.723 169.978C247.149 169.978 265.573 180.745 271.919 202.28C280.565 195.627 290.031 192.704 299.182 192.704C316.896 192.704 333.443 203.641 340.711 219.603C318.407 219.65 297.304 230.715 284.239 249.229C277.602 258.634 273.61 269.252 272.354 280.269C271.058 279.21 269.723 278.184 268.338 277.217C256.805 269.156 243.107 264.895 228.723 264.895C214.34 264.895 200.64 269.156 189.108 277.217C187.723 278.184 186.389 279.208 185.092 280.269C183.836 269.251 179.845 258.632 173.207 249.227C160.143 230.715 139.041 219.65 116.736 219.603V219.603ZM116.736 101.145C124.005 85.1855 140.552 74.2467 158.263 74.2467C167.417 74.2467 176.878 77.1668 185.527 83.825C191.872 62.2893 210.297 51.5205 228.723 51.5205C247.149 51.5205 265.573 62.2893 271.919 83.825C280.565 77.1683 290.031 74.2467 299.182 74.2467C316.896 74.2467 333.443 85.1855 340.711 101.145C318.407 101.193 297.304 112.257 284.239 130.771C277.602 140.177 273.61 150.795 272.354 161.814C271.058 160.751 269.723 159.729 268.338 158.761C256.805 150.698 243.107 146.439 228.723 146.439C214.34 146.439 200.64 150.698 189.108 158.761C187.723 159.729 186.389 160.751 185.092 161.812C183.836 150.793 179.845 140.177 173.207 130.771C160.143 112.257 139.041 101.194 116.736 101.145V101.145ZM116.736 -17.3102C124.005 -33.2719 140.552 -44.209 158.263 -44.209C167.417 -44.209 176.878 -41.2886 185.527 -34.634C191.872 -56.1696 210.297 -66.9349 228.723 -66.9349C247.149 -66.9349 265.573 -56.1696 271.919 -34.634C280.565 -41.2871 290.031 -44.209 299.182 -44.209C316.895 -44.209 333.443 -33.2719 340.711 -17.3102C318.406 -17.2642 297.304 -6.19797 284.239 12.3145C277.602 21.7212 273.61 32.3378 272.354 43.3566C271.058 42.2939 269.723 41.27 268.338 40.3023C256.805 32.2428 243.107 27.9803 228.723 27.9803C214.34 27.9803 200.64 32.2428 189.106 40.3023C187.722 41.27 186.389 42.2939 185.092 43.355C183.836 32.3362 179.845 21.7192 173.207 12.3129C160.143 -6.19798 139.041 -17.2642 116.736 -17.3102V-17.3102ZM116.736 -135.767C124.005 -151.727 140.552 -162.664 158.263 -162.664C167.417 -162.664 176.878 -159.746 185.527 -153.089C191.872 -174.625 210.297 -185.394 228.723 -185.394C247.149 -185.394 265.573 -174.625 271.919 -153.089C280.565 -159.742 290.031 -162.664 299.182 -162.664C316.896 -162.664 333.443 -151.729 340.711 -135.767C318.406 -135.72 297.304 -124.655 284.239 -106.141C277.602 -96.7361 273.61 -86.1196 272.354 -75.1004C271.058 -76.1619 269.723 -77.1854 268.338 -78.1535C256.805 -86.2161 243.107 -90.4755 228.723 -90.4755C214.34 -90.4755 200.64 -86.2161 189.108 -78.1535C187.723 -77.1854 186.389 -76.1619 185.092 -75.1024C183.836 -86.1212 179.845 -96.7377 173.207 -106.143C160.143 -124.655 139.041 -135.72 116.736 -135.767V-135.767ZM340.854 -230.689C350.008 -230.689 359.468 -227.77 368.116 -221.112C374.462 -242.648 392.887 -253.416 411.312 -253.416C429.738 -253.416 448.164 -242.648 454.509 -221.112C463.156 -227.767 472.622 -230.689 481.773 -230.689C505.479 -230.689 527.088 -211.101 527.156 -186.094C525.922 -186.162 524.686 -186.205 523.443 -186.205C501.086 -186.205 479.922 -175.127 466.83 -156.575C463.196 -151.425 460.359 -145.913 458.325 -140.172C456.018 -142.334 453.552 -144.343 450.929 -146.176C439.396 -154.239 425.696 -158.5 411.312 -158.5C396.929 -158.5 383.231 -154.239 371.697 -146.176C369.073 -144.343 366.609 -142.335 364.301 -140.172C362.267 -145.913 359.431 -151.427 355.798 -156.577C342.705 -175.129 321.54 -186.205 299.182 -186.205C297.939 -186.205 296.701 -186.162 295.468 -186.094C295.54 -211.101 317.15 -230.689 340.854 -230.689V-230.689ZM550.707 -153.089C557.052 -174.625 575.477 -185.394 593.903 -185.394C612.33 -185.394 630.755 -174.625 637.099 -153.089C645.746 -159.742 655.211 -162.664 664.364 -162.664C682.076 -162.664 698.625 -151.729 705.89 -135.767C683.587 -135.72 662.483 -124.655 649.419 -106.141C642.783 -96.7361 638.79 -86.1196 637.536 -75.1024C636.238 -76.1619 634.903 -77.1854 633.52 -78.1535C621.987 -86.2161 608.287 -90.4755 593.903 -90.4755C579.52 -90.4755 565.821 -86.2161 554.288 -78.1535C552.903 -77.1854 551.569 -76.1619 550.272 -75.1024C549.018 -86.1196 545.025 -96.7377 538.387 -106.143C525.322 -124.655 504.221 -135.72 481.916 -135.767C489.185 -151.727 505.734 -162.664 523.443 -162.664C532.595 -162.664 542.058 -159.746 550.707 -153.089V-153.089ZM706.034 -230.689C715.188 -230.689 724.649 -227.77 733.298 -221.112C739.642 -242.648 758.068 -253.416 776.494 -253.416C794.92 -253.416 813.344 -242.648 819.689 -221.112C828.335 -227.767 837.802 -230.689 846.954 -230.689C870.658 -230.689 892.269 -211.101 892.34 -186.094C891.105 -186.162 889.866 -186.205 888.623 -186.205C866.268 -186.205 845.103 -175.127 832.01 -156.575C828.376 -151.425 825.541 -145.913 823.505 -140.172C821.199 -142.334 818.732 -144.343 816.109 -146.176C804.576 -154.239 790.877 -158.5 776.494 -158.5C762.109 -158.5 748.411 -154.239 736.879 -146.176C734.254 -144.343 731.789 -142.335 729.483 -140.172C727.447 -145.913 724.613 -151.427 720.978 -156.577C707.885 -175.129 686.722 -186.205 664.364 -186.205C663.121 -186.205 661.883 -186.162 660.648 -186.094C660.72 -211.101 682.331 -230.689 706.034 -230.689V-230.689ZM1014.6 12.3145C1007.96 21.7192 1003.97 32.3362 1002.72 43.3566C1001.42 42.2939 1000.08 41.27 998.7 40.3023C987.167 32.2428 973.467 27.9803 959.083 27.9803C944.7 27.9803 931 32.2428 919.468 40.3023C918.083 41.27 916.751 42.2939 915.454 43.355C914.198 32.3362 910.206 21.7177 903.567 12.3129C890.505 -6.19798 869.403 -17.2642 847.098 -17.3102C854.365 -33.2719 870.914 -44.209 888.625 -44.209C897.779 -44.209 907.238 -41.2886 915.887 -34.634C922.232 -56.1696 940.659 -66.9349 959.083 -66.9349C977.509 -66.9349 995.934 -56.1696 1002.28 -34.634C1010.92 -41.2871 1020.39 -44.209 1029.54 -44.209C1047.25 -44.209 1063.8 -33.2719 1071.07 -17.3102C1048.77 -17.2642 1027.67 -6.19797 1014.6 12.3145ZM1014.6 130.771C1007.96 140.177 1003.97 150.795 1002.72 161.814C1001.42 160.751 1000.08 159.729 998.7 158.761C987.167 150.698 973.467 146.439 959.083 146.439C944.7 146.439 931 150.698 919.468 158.761C918.083 159.729 916.751 160.751 915.454 161.812C914.198 150.793 910.206 140.177 903.567 130.77C890.505 112.257 869.403 101.194 847.098 101.145C854.365 85.1855 870.912 74.2467 888.623 74.2467C897.777 74.2467 907.238 77.1668 915.887 83.825C922.232 62.2893 940.659 51.5205 959.083 51.5205C977.509 51.5205 995.934 62.2893 1002.28 83.825C1010.92 77.1683 1020.39 74.2467 1029.54 74.2467C1047.26 74.2467 1063.8 85.1855 1071.07 101.145C1048.77 101.193 1027.67 112.257 1014.6 130.771V130.771ZM1014.6 249.229C1007.96 258.634 1003.97 269.252 1002.72 280.269C1001.42 279.21 1000.08 278.184 998.7 277.217C987.167 269.156 973.467 264.895 959.083 264.895C944.7 264.895 931 269.156 919.468 277.217C918.083 278.184 916.751 279.208 915.454 280.268C914.198 269.251 910.206 258.632 903.567 249.227C890.505 230.715 869.403 219.65 847.098 219.603C854.365 203.642 870.912 192.704 888.623 192.704C897.777 192.704 907.238 195.626 915.887 202.28C922.232 180.745 940.659 169.978 959.083 169.978C977.509 169.978 995.934 180.745 1002.28 202.28C1010.92 195.627 1020.39 192.704 1029.54 192.704C1047.26 192.704 1063.8 203.641 1071.07 219.603C1048.77 219.65 1027.67 230.715 1014.6 249.229V249.229ZM1014.6 367.684C1007.96 377.091 1003.97 387.707 1002.72 398.725C1001.42 397.665 1000.08 396.642 998.7 395.674C987.167 387.613 973.467 383.352 959.083 383.352C944.7 383.352 931 387.613 919.468 395.674C918.083 396.642 916.751 397.664 915.454 398.725C914.198 387.706 910.206 377.089 903.567 367.683C890.505 349.172 869.403 338.107 847.098 338.06C854.365 322.098 870.914 311.161 888.623 311.161C897.777 311.161 907.238 314.081 915.887 320.738C922.232 299.202 940.659 288.433 959.083 288.433C977.509 288.433 995.934 299.202 1002.28 320.738C1010.92 314.083 1020.39 311.161 1029.54 311.161C1047.26 311.161 1063.8 322.098 1071.07 338.06C1048.77 338.105 1027.67 349.172 1014.6 367.684V367.684ZM1014.6 486.148C1007.96 495.55 1003.97 506.161 1002.72 517.182C1001.42 516.119 1000.08 515.105 998.7 514.124C987.167 506.063 973.467 501.812 959.083 501.812C944.7 501.812 931 506.063 919.468 514.124C918.083 515.105 916.751 516.119 915.454 517.182C914.198 506.161 910.206 495.55 903.567 486.148C890.505 467.622 869.403 456.564 847.098 456.515C854.365 440.555 870.914 429.618 888.623 429.618C897.777 429.618 907.238 432.537 915.887 439.193C922.232 417.659 940.659 406.892 959.083 406.892C977.509 406.892 995.934 417.659 1002.28 439.193C1010.92 432.54 1020.39 429.618 1029.54 429.618C1047.26 429.618 1063.8 440.555 1071.07 456.515C1048.77 456.564 1027.67 467.622 1014.6 486.148V486.148ZM1014.6 604.594C1007.96 614.012 1003.97 624.623 1002.72 635.644C1001.42 634.581 1000.08 633.551 998.7 632.586C987.167 624.525 973.467 620.258 959.083 620.258C944.7 620.258 931 624.525 919.468 632.586C918.083 633.551 916.751 634.581 915.454 635.644C914.198 624.623 910.206 613.995 903.567 604.594C890.505 586.085 869.403 575.015 847.098 574.966C854.365 559.007 870.912 548.069 888.623 548.069C897.777 548.069 907.238 550.995 915.887 557.65C922.232 536.116 940.659 525.341 959.083 525.341C977.509 525.341 995.934 536.116 1002.28 557.65C1010.92 550.995 1020.39 548.069 1029.54 548.069C1047.26 548.069 1063.8 559.007 1071.07 574.966C1048.77 575.015 1027.67 586.085 1014.6 604.594ZM1014.6 723.056C1007.96 732.458 1003.97 743.085 1002.72 754.09C1001.42 753.027 1000.08 752.013 998.7 751.048C987.167 742.987 973.467 738.72 959.083 738.72C944.7 738.72 931 742.987 919.468 751.048C918.083 752.013 916.751 753.027 915.454 754.09C914.198 743.085 910.206 732.458 903.567 723.056C890.505 704.547 869.403 693.477 847.098 693.428C854.365 677.47 870.912 666.531 888.623 666.531C897.777 666.531 907.238 669.457 915.887 676.113C922.232 654.578 940.659 643.803 959.083 643.803C977.509 643.803 995.934 654.578 1002.28 676.113C1010.92 669.457 1020.39 666.531 1029.54 666.531C1047.26 666.531 1063.8 677.47 1071.07 693.428C1048.77 693.477 1027.67 704.547 1014.6 723.056ZM888.623 784.993C897.777 784.993 907.238 787.903 915.887 794.558C922.232 773.024 940.659 762.265 959.083 762.265C977.509 762.265 995.934 773.024 1002.28 794.558C1010.92 787.903 1020.39 784.993 1029.54 784.993C1047.26 784.993 1063.8 795.932 1071.07 811.89C1048.77 811.939 1027.67 822.992 1014.6 841.518C1007.96 850.92 1003.97 861.531 1002.72 872.552C1001.42 871.489 1000.08 870.475 998.7 869.494C987.167 861.433 973.467 857.182 959.083 857.182C944.7 857.182 931 861.433 919.468 869.494C918.083 870.475 916.751 871.489 915.454 872.552C914.198 861.531 910.206 850.92 903.567 841.518C890.505 822.992 869.403 811.939 847.098 811.89C854.365 795.932 870.912 784.993 888.623 784.993ZM664.364 761.448C663.121 761.448 661.883 761.497 660.648 761.562C660.72 736.545 682.331 716.957 706.034 716.957C715.188 716.957 724.649 719.884 733.298 726.539C739.642 705.005 758.068 694.229 776.494 694.229C794.92 694.229 813.344 705.005 819.689 726.539C828.335 719.884 837.802 716.957 846.953 716.957C870.658 716.957 892.268 736.545 892.34 761.562C891.105 761.497 889.866 761.448 888.623 761.448C866.268 761.448 845.103 772.517 832.01 791.075C828.376 796.226 825.541 801.736 823.505 807.475C821.199 805.317 818.732 803.306 816.109 801.475C804.576 793.413 790.877 789.162 776.494 789.162C762.109 789.162 748.411 793.413 736.879 801.475C734.254 803.306 731.789 805.317 729.483 807.475C727.447 801.736 724.613 796.226 720.978 791.075C707.885 772.517 686.722 761.448 664.364 761.448V761.448ZM523.443 784.993C532.595 784.993 542.058 787.903 550.707 794.558C557.052 773.024 575.477 762.265 593.903 762.265C612.33 762.265 630.755 773.024 637.099 794.558C645.746 787.903 655.211 784.993 664.364 784.993C682.076 784.993 698.625 795.932 705.89 811.89C683.587 811.939 662.483 822.992 649.419 841.518C642.783 850.92 638.79 861.531 637.536 872.552C636.238 871.489 634.903 870.475 633.52 869.494C621.987 861.433 608.287 857.182 593.903 857.182C579.52 857.182 565.821 861.433 554.288 869.494C552.903 870.475 551.569 871.489 550.272 872.552C549.016 861.531 545.025 850.92 538.387 841.518C525.322 822.992 504.221 811.939 481.916 811.89C489.185 795.932 505.734 784.993 523.443 784.993V784.993ZM368.116 726.539C374.462 705.005 392.887 694.229 411.312 694.229C429.738 694.229 448.164 705.005 454.509 726.539C463.156 719.884 472.622 716.957 481.773 716.957C505.479 716.957 527.088 736.545 527.156 761.562C525.922 761.497 524.686 761.448 523.443 761.448C501.086 761.448 479.922 772.517 466.83 791.075C463.196 796.226 460.359 801.736 458.325 807.475C456.018 805.317 453.552 803.306 450.929 801.475C439.396 793.413 425.696 789.162 411.312 789.162C396.929 789.162 383.231 793.413 371.697 801.475C369.074 803.306 366.609 805.317 364.301 807.475C362.267 801.736 359.431 796.226 355.798 791.075C342.705 772.517 321.54 761.448 299.182 761.448C297.939 761.448 296.701 761.497 295.468 761.562C295.54 736.545 317.151 716.957 340.854 716.957C350.008 716.957 359.468 719.884 368.116 726.539ZM368.116 608.077C374.462 586.542 392.887 575.783 411.312 575.783C429.738 575.783 448.164 586.542 454.509 608.077C463.156 601.438 472.622 598.511 481.773 598.511C505.479 598.511 527.088 618.099 527.156 643.1C525.922 643.035 524.686 642.986 523.445 642.986C501.086 642.986 479.922 654.071 466.83 672.63C463.196 677.764 460.359 683.29 458.325 689.029C456.018 686.871 453.552 684.86 450.929 683.012C439.396 674.951 425.696 670.7 411.312 670.7C396.929 670.7 383.231 674.951 371.697 683.012C369.074 684.86 366.609 686.855 364.301 689.029C362.267 683.29 359.431 677.764 355.798 672.613C342.705 654.071 321.54 642.986 299.182 642.986C297.939 642.986 296.701 643.035 295.468 643.1C295.54 618.099 317.15 598.511 340.854 598.511C350.008 598.511 359.468 601.422 368.116 608.077V608.077ZM368.116 489.631C374.462 468.096 392.887 457.323 411.312 457.323C429.738 457.323 448.164 468.096 454.509 489.631C463.156 482.976 472.622 480.049 481.773 480.049C505.479 480.049 527.088 499.637 527.156 524.654C525.922 524.574 524.686 524.54 523.445 524.54C501.086 524.54 479.922 535.611 466.83 554.168C463.196 559.318 460.359 564.828 458.325 570.567C456.018 568.409 453.553 566.398 450.929 564.567C439.396 556.506 425.696 552.238 411.312 552.238C396.929 552.238 383.231 556.506 371.697 564.567C369.074 566.398 366.609 568.409 364.301 570.567C362.267 564.828 359.431 559.318 355.798 554.168C342.705 535.611 321.54 524.54 299.182 524.54C297.939 524.54 296.701 524.574 295.468 524.654C295.54 499.637 317.15 480.049 340.854 480.049C350.008 480.049 359.468 482.976 368.116 489.631V489.631ZM368.116 371.17C374.462 349.634 392.887 338.868 411.312 338.868C429.738 338.868 448.164 349.634 454.509 371.17C463.156 364.517 472.622 361.593 481.773 361.593C505.479 361.593 527.088 381.182 527.156 406.189C525.922 406.12 524.686 406.079 523.445 406.079C501.086 406.079 479.922 417.156 466.83 435.709C463.196 440.858 460.359 446.371 458.325 452.114C456.018 449.951 453.553 447.941 450.929 446.106C439.396 438.045 425.696 433.784 411.312 433.784C396.929 433.784 383.231 438.045 371.697 446.106C369.073 447.939 366.609 449.949 364.301 452.112C362.267 446.37 359.431 440.856 355.798 435.709C342.705 417.156 321.54 406.079 299.182 406.079C297.939 406.079 296.701 406.12 295.468 406.189C295.54 381.183 317.151 361.593 340.854 361.593C350.008 361.593 359.468 364.515 368.116 371.17V371.17ZM368.116 252.715C374.462 231.179 392.887 220.41 411.312 220.41C429.738 220.41 448.164 231.179 454.509 252.715C463.156 246.058 472.622 243.138 481.773 243.138C505.479 243.138 527.088 262.727 527.156 287.734C525.922 287.665 524.686 287.621 523.445 287.621C501.086 287.621 479.923 298.698 466.83 317.251C463.196 322.4 460.359 327.914 458.325 333.657C456.018 331.492 453.552 329.484 450.929 327.649C439.396 319.588 425.696 315.329 411.312 315.329C396.929 315.329 383.231 319.588 371.697 327.649C369.073 329.484 366.609 331.492 364.301 333.655C362.267 327.914 359.431 322.4 355.798 317.25C342.705 298.698 321.54 287.621 299.182 287.621C297.939 287.621 296.701 287.665 295.468 287.734C295.54 262.727 317.151 243.138 340.854 243.138C350.008 243.138 359.468 246.056 368.116 252.715V252.715ZM368.116 134.256C374.462 112.72 392.887 101.955 411.312 101.955C429.738 101.955 448.164 112.72 454.509 134.256C463.156 127.603 472.622 124.681 481.773 124.681C505.479 124.681 527.088 144.268 527.156 169.275C525.922 169.206 524.686 169.165 523.443 169.165C501.086 169.165 479.922 180.241 466.83 198.794C463.196 203.945 460.359 209.459 458.325 215.198C456.018 213.036 453.552 211.028 450.929 209.192C439.396 201.133 425.696 196.87 411.312 196.87C396.929 196.87 383.231 201.133 371.697 209.192C369.074 211.028 366.609 213.036 364.301 215.198C362.267 209.457 359.431 203.943 355.798 198.794C342.705 180.241 321.54 169.165 299.182 169.165C297.939 169.165 296.701 169.206 295.468 169.275C295.54 144.269 317.151 124.681 340.854 124.681C350.008 124.681 359.468 127.601 368.116 134.256ZM368.116 15.8004C374.462 -5.73531 392.887 -16.5026 411.312 -16.5026C429.738 -16.5026 448.164 -5.73531 454.509 15.8004C463.156 9.14569 472.622 6.22528 481.773 6.22528C505.479 6.22528 527.088 25.8122 527.156 50.8192C525.922 50.7505 524.686 50.7078 523.443 50.7078C501.086 50.7078 479.922 61.7839 466.83 80.3391C463.196 85.4861 460.359 90.9996 458.325 96.7423C456.018 94.5789 453.552 92.5693 450.929 90.7363C439.396 82.6756 425.696 78.4147 411.312 78.4147C396.929 78.4147 383.231 82.6756 371.697 90.7363C369.074 92.5693 366.609 94.5789 364.301 96.7423C362.267 90.9996 359.431 85.4861 355.798 80.3371C342.705 61.7839 321.54 50.7078 299.182 50.7078C297.939 50.7078 296.701 50.7505 295.468 50.8192C295.54 25.8122 317.15 6.22528 340.854 6.22528C350.008 6.22528 359.468 9.14412 368.116 15.8004ZM523.445 -67.7492C501.086 -67.7492 479.923 -56.6716 466.83 -38.1183C463.196 -32.9693 460.359 -27.4558 458.325 -21.7135C456.018 -23.8781 453.552 -25.8861 450.929 -27.7207C439.396 -35.7818 425.696 -40.0427 411.312 -40.0427C396.929 -40.0427 383.231 -35.7818 371.697 -27.7207C369.073 -25.8861 366.609 -23.8781 364.301 -21.7151C362.267 -27.4574 359.431 -32.9709 355.798 -38.1183C342.705 -56.6716 321.54 -67.7492 299.182 -67.7492C297.939 -67.7492 296.701 -67.7068 295.468 -67.6381C295.54 -92.6436 317.15 -112.234 340.854 -112.234C350.008 -112.234 359.468 -109.312 368.116 -102.657C374.462 -124.193 392.887 -134.96 411.312 -134.96C429.738 -134.96 448.164 -124.193 454.509 -102.657C463.156 -109.312 472.622 -112.234 481.773 -112.234C505.479 -112.234 527.088 -92.6452 527.156 -67.6381C525.922 -67.7052 524.686 -67.7492 523.445 -67.7492V-67.7492ZM832.01 -38.1183C828.376 -32.9693 825.541 -27.4558 823.505 -21.7135C821.199 -23.8781 818.732 -25.8861 816.109 -27.7207C804.576 -35.7818 790.877 -40.0427 776.494 -40.0427C762.109 -40.0427 748.411 -35.7818 736.879 -27.7207C734.254 -25.8861 731.789 -23.8781 729.483 -21.7151C727.447 -27.4574 724.613 -32.9709 720.978 -38.1183C707.885 -56.6716 686.722 -67.7492 664.364 -67.7492C663.121 -67.7492 661.883 -67.7052 660.648 -67.6381C660.72 -92.6436 682.331 -112.234 706.034 -112.234C715.188 -112.234 724.649 -109.312 733.298 -102.657C739.642 -124.193 758.068 -134.96 776.494 -134.96C794.92 -134.96 813.344 -124.193 819.689 -102.657C828.335 -109.312 837.802 -112.234 846.954 -112.234C870.658 -112.234 892.268 -92.6452 892.34 -67.6381C891.105 -67.7052 889.867 -67.7492 888.625 -67.7492C866.268 -67.7492 845.103 -56.6716 832.01 -38.1183ZM832.01 80.3391C828.376 85.4861 825.541 90.9996 823.505 96.7423C821.199 94.5789 818.732 92.5693 816.109 90.7363C804.576 82.6756 790.877 78.4147 776.494 78.4147C762.109 78.4147 748.411 82.6756 736.879 90.7363C734.254 92.5693 731.789 94.5789 729.483 96.7423C727.447 90.9996 724.613 85.4861 720.978 80.3371C707.885 61.7839 686.722 50.7078 664.364 50.7078C663.121 50.7078 661.883 50.7505 660.648 50.8192C660.72 25.8122 682.331 6.22528 706.034 6.22528C715.188 6.22528 724.649 9.14412 733.298 15.8004C739.642 -5.73531 758.068 -16.5026 776.494 -16.5026C794.92 -16.5026 813.344 -5.73531 819.689 15.8004C828.335 9.14569 837.802 6.22528 846.954 6.22528C870.658 6.22528 892.268 25.8122 892.34 50.8192C891.105 50.7505 889.866 50.7078 888.623 50.7078C866.268 50.7078 845.103 61.7839 832.01 80.3391ZM832.01 198.794C828.376 203.945 825.541 209.459 823.505 215.199C821.199 213.036 818.732 211.028 816.109 209.192C804.576 201.133 790.877 196.87 776.494 196.87C762.109 196.87 748.411 201.133 736.879 209.192C734.254 211.028 731.789 213.036 729.483 215.198C727.447 209.457 724.613 203.943 720.978 198.794C707.885 180.241 686.722 169.165 664.364 169.165C663.121 169.165 661.883 169.206 660.648 169.275C660.72 144.269 682.331 124.681 706.034 124.681C715.188 124.681 724.649 127.601 733.298 134.256C739.642 112.72 758.068 101.955 776.494 101.955C794.92 101.955 813.344 112.72 819.689 134.256C828.335 127.603 837.802 124.681 846.953 124.681C870.658 124.681 892.268 144.268 892.34 169.275C891.105 169.206 889.866 169.165 888.623 169.165C866.268 169.165 845.103 180.241 832.01 198.794V198.794ZM832.01 317.251C828.378 322.4 825.541 327.914 823.505 333.657C821.199 331.493 818.732 329.484 816.109 327.651C804.576 319.588 790.877 315.329 776.494 315.329C762.109 315.329 748.411 319.588 736.879 327.649C734.254 329.484 731.789 331.492 729.483 333.657C727.447 327.914 724.613 322.4 720.978 317.25C707.885 298.698 686.722 287.621 664.364 287.621C663.121 287.621 661.883 287.665 660.648 287.734C660.72 262.727 682.331 243.138 706.034 243.138C715.188 243.138 724.649 246.056 733.298 252.715C739.642 231.179 758.068 220.41 776.494 220.41C794.92 220.41 813.344 231.179 819.689 252.715C828.335 246.058 837.802 243.138 846.953 243.138C870.658 243.138 892.268 262.727 892.34 287.734C891.105 287.665 889.866 287.621 888.623 287.621C866.268 287.621 845.103 298.698 832.01 317.251ZM832.01 435.709C828.376 440.858 825.541 446.371 823.505 452.114C821.199 449.951 818.732 447.941 816.109 446.106C804.576 438.045 790.877 433.784 776.494 433.784C762.109 433.784 748.411 438.045 736.879 446.106C734.254 447.939 731.789 449.949 729.483 452.112C727.447 446.37 724.613 440.856 720.978 435.709C707.885 417.156 686.722 406.079 664.364 406.079C663.121 406.079 661.883 406.12 660.648 406.189C660.72 381.183 682.331 361.593 706.034 361.593C715.188 361.593 724.649 364.515 733.298 371.17C739.642 349.634 758.068 338.868 776.494 338.868C794.92 338.868 813.344 349.634 819.689 371.17C828.335 364.517 837.802 361.593 846.953 361.593C870.658 361.593 892.268 381.182 892.34 406.189C891.105 406.12 889.866 406.079 888.623 406.079C866.268 406.079 845.103 417.156 832.01 435.709V435.709ZM832.01 554.168C828.376 559.318 825.541 564.828 823.505 570.567C821.199 568.409 818.732 566.398 816.109 564.567C804.576 556.506 790.877 552.238 776.494 552.238C762.109 552.238 748.411 556.506 736.879 564.567C734.254 566.398 731.789 568.409 729.483 570.567C727.447 564.828 724.613 559.318 720.978 554.168C707.885 535.611 686.722 524.54 664.364 524.54C663.121 524.54 661.883 524.574 660.648 524.654C660.72 499.637 682.331 480.049 706.034 480.049C715.188 480.049 724.649 482.976 733.298 489.631C739.642 468.096 758.068 457.323 776.494 457.323C794.92 457.323 813.344 468.096 819.689 489.631C828.335 482.976 837.802 480.049 846.954 480.049C870.658 480.049 892.268 499.637 892.34 524.654C891.105 524.574 889.866 524.54 888.623 524.54C866.268 524.54 845.103 535.611 832.01 554.168ZM664.364 642.986C663.121 642.986 661.883 643.035 660.648 643.1C660.72 618.099 682.331 598.511 706.034 598.511C715.188 598.511 724.649 601.422 733.298 608.077C739.642 586.542 758.068 575.783 776.494 575.783C794.92 575.783 813.344 586.542 819.689 608.077C828.335 601.438 837.802 598.511 846.954 598.511C870.658 598.511 892.268 618.099 892.34 643.1C891.105 643.035 889.866 642.986 888.623 642.986C866.268 642.986 845.103 654.071 832.01 672.63C828.376 677.764 825.541 683.29 823.505 689.029C821.199 686.871 818.732 684.86 816.109 683.012C804.576 674.951 790.877 670.7 776.494 670.7C762.109 670.7 748.411 674.951 736.879 683.012C734.254 684.86 731.789 686.855 729.483 689.029C727.447 683.29 724.613 677.764 720.978 672.613C707.887 654.071 686.722 642.986 664.364 642.986ZM550.707 676.113C557.052 654.578 575.477 643.803 593.903 643.803C612.33 643.803 630.755 654.578 637.099 676.113C645.746 669.457 655.211 666.531 664.364 666.531C682.076 666.531 698.625 677.47 705.89 693.428C683.587 693.477 662.483 704.547 649.419 723.056C642.783 732.458 638.79 743.085 637.536 754.09C636.238 753.027 634.903 752.013 633.52 751.048C621.987 742.987 608.287 738.72 593.903 738.72C579.52 738.72 565.821 742.987 554.288 751.048C552.903 752.013 551.569 753.027 550.272 754.09C549.018 743.085 545.025 732.458 538.387 723.056C525.322 704.547 504.221 693.477 481.916 693.428C489.185 677.47 505.734 666.531 523.445 666.531C532.595 666.531 542.058 669.457 550.707 676.113ZM550.707 557.65C557.052 536.116 575.477 525.341 593.903 525.341C612.33 525.341 630.755 536.116 637.099 557.65C645.746 550.995 655.211 548.069 664.364 548.069C682.076 548.069 698.625 559.007 705.89 574.966C683.587 575.015 662.483 586.085 649.419 604.594C642.783 614.012 638.79 624.623 637.536 635.644C636.238 634.581 634.903 633.551 633.52 632.586C621.987 624.525 608.287 620.258 593.903 620.258C579.52 620.258 565.821 624.525 554.286 632.586C552.903 633.551 551.569 634.581 550.272 635.644C549.016 624.623 545.025 613.995 538.387 604.594C525.322 586.085 504.221 575.015 481.916 574.966C489.185 559.007 505.734 548.069 523.445 548.069C532.595 548.069 542.058 550.995 550.707 557.65ZM550.707 439.193C557.052 417.659 575.477 406.892 593.903 406.892C612.33 406.892 630.755 417.659 637.099 439.193C645.746 432.54 655.211 429.618 664.364 429.618C682.076 429.618 698.625 440.555 705.89 456.515C683.587 456.563 662.483 467.622 649.419 486.148C642.783 495.55 638.79 506.161 637.536 517.182C636.238 516.119 634.903 515.105 633.52 514.124C621.987 506.063 608.287 501.812 593.903 501.812C579.52 501.812 565.821 506.063 554.288 514.124C552.903 515.105 551.569 516.119 550.272 517.182C549.018 506.161 545.025 495.55 538.387 486.148C525.322 467.622 504.221 456.564 481.916 456.515C489.185 440.555 505.734 429.618 523.445 429.618C532.595 429.618 542.058 432.537 550.707 439.193V439.193ZM550.707 320.738C557.052 299.202 575.477 288.433 593.903 288.433C612.33 288.433 630.755 299.202 637.099 320.738C645.746 314.083 655.211 311.161 664.364 311.161C682.076 311.161 698.625 322.098 705.89 338.06C683.587 338.105 662.483 349.172 649.419 367.684C642.783 377.091 638.79 387.707 637.536 398.725C636.238 397.665 634.903 396.642 633.52 395.674C621.987 387.613 608.287 383.352 593.903 383.352C579.52 383.352 565.821 387.613 554.288 395.674C552.903 396.642 551.569 397.665 550.272 398.725C549.018 387.706 545.025 377.089 538.387 367.684C525.322 349.172 504.221 338.105 481.916 338.06C489.185 322.098 505.734 311.161 523.445 311.161C532.595 311.161 542.058 314.081 550.707 320.738ZM481.916 101.145C489.185 85.1855 505.734 74.2467 523.443 74.2467C532.595 74.2467 542.058 77.1668 550.707 83.825C557.052 62.2893 575.477 51.5205 593.903 51.5205C612.33 51.5205 630.755 62.2893 637.099 83.825C645.746 77.1683 655.211 74.2467 664.364 74.2467C682.076 74.2467 698.625 85.1855 705.89 101.145C683.587 101.193 662.483 112.257 649.419 130.771C642.783 140.177 638.79 150.795 637.536 161.814C636.238 160.751 634.903 159.729 633.52 158.761C621.987 150.698 608.287 146.439 593.903 146.439C579.52 146.439 565.821 150.698 554.288 158.761C552.903 159.729 551.569 160.751 550.272 161.812C549.018 150.793 545.025 140.177 538.387 130.771C525.322 112.257 504.221 101.194 481.916 101.145V101.145ZM550.707 202.28C557.052 180.745 575.477 169.978 593.903 169.978C612.33 169.978 630.755 180.745 637.099 202.28C645.746 195.627 655.211 192.704 664.364 192.704C682.076 192.704 698.625 203.642 705.89 219.603C683.587 219.65 662.483 230.715 649.419 249.229C642.783 258.634 638.79 269.251 637.536 280.269C636.238 279.208 634.903 278.184 633.52 277.217C621.987 269.156 608.287 264.895 593.903 264.895C579.52 264.895 565.821 269.156 554.288 277.217C552.903 278.184 551.569 279.208 550.272 280.269C549.018 269.251 545.025 258.632 538.387 249.227C525.322 230.715 504.221 219.65 481.916 219.603C489.185 203.642 505.734 192.704 523.443 192.704C532.595 192.704 542.058 195.626 550.707 202.28V202.28ZM637.099 -34.634C645.746 -41.2871 655.211 -44.209 664.364 -44.209C682.076 -44.209 698.625 -33.2719 705.89 -17.3102C683.587 -17.2642 662.483 -6.19797 649.419 12.3145C642.783 21.7212 638.79 32.3362 637.536 43.3566C636.238 42.2939 634.903 41.27 633.52 40.3023C621.987 32.2428 608.287 27.9803 593.903 27.9803C579.52 27.9803 565.821 32.2428 554.286 40.3023C552.903 41.27 551.569 42.2939 550.272 43.3566C549.016 32.3362 545.025 21.7192 538.387 12.3129C525.322 -6.19798 504.221 -17.2642 481.916 -17.3102C489.185 -33.2719 505.734 -44.209 523.445 -44.209C532.595 -44.209 542.058 -41.2886 550.707 -34.634C557.052 -56.1696 575.477 -66.9349 593.903 -66.9349C612.33 -66.9349 630.755 -56.1696 637.099 -34.634ZM915.887 -153.089C922.232 -174.625 940.659 -185.394 959.083 -185.394C977.509 -185.394 995.934 -174.625 1002.28 -153.089C1010.92 -159.742 1020.39 -162.664 1029.54 -162.664C1047.26 -162.664 1063.8 -151.729 1071.07 -135.767C1048.77 -135.72 1027.67 -124.655 1014.6 -106.141C1007.96 -96.7361 1003.97 -86.1196 1002.72 -75.1004C1001.42 -76.1619 1000.08 -77.1854 998.7 -78.1535C987.167 -86.2161 973.467 -90.4755 959.083 -90.4755C944.7 -90.4755 931 -86.2161 919.468 -78.1535C918.083 -77.1854 916.751 -76.1619 915.454 -75.1024C914.198 -86.1212 910.206 -96.7377 903.567 -106.143C890.505 -124.655 869.403 -135.72 847.098 -135.767C854.365 -151.727 870.912 -162.664 888.623 -162.664C897.777 -162.664 907.238 -159.746 915.887 -153.089V-153.089ZM1280.63 -193.558C1279.38 -204.577 1275.39 -215.193 1268.75 -224.6C1255.68 -243.114 1234.58 -254.177 1212.28 -254.224C1219.55 -270.185 1236.09 -281.122 1253.8 -281.122C1262.96 -281.122 1272.42 -278.201 1281.07 -271.547C1283.18 -278.73 1286.65 -284.707 1291.01 -289.495H1210.85C1205.71 -285.393 1201.09 -280.553 1197.19 -275.033C1193.56 -269.884 1190.72 -264.37 1188.69 -258.628C1186.38 -260.791 1183.91 -262.8 1181.29 -264.633C1169.76 -272.695 1156.06 -276.957 1141.67 -276.957C1127.29 -276.957 1113.59 -272.695 1102.06 -264.633C1099.43 -262.8 1096.97 -260.791 1094.66 -258.629C1092.63 -264.372 1089.79 -269.885 1086.16 -275.034C1082.26 -280.553 1077.64 -285.393 1072.5 -289.495H992.342C996.697 -284.707 1000.16 -278.73 1002.28 -271.547C1010.92 -278.201 1020.39 -281.122 1029.54 -281.122C1047.26 -281.122 1063.8 -270.186 1071.07 -254.224C1048.77 -254.177 1027.67 -243.114 1014.6 -224.598C1007.96 -215.192 1003.97 -204.575 1002.72 -193.558C1001.42 -194.617 1000.08 -195.643 998.7 -196.61C987.167 -204.672 973.467 -208.932 959.083 -208.932C944.7 -208.932 931 -204.672 919.468 -196.61C918.083 -195.643 916.751 -194.619 915.454 -193.558C914.198 -204.577 910.206 -215.195 903.567 -224.6C890.505 -243.114 869.403 -254.177 847.098 -254.224C854.365 -270.185 870.912 -281.122 888.623 -281.122C897.777 -281.122 907.238 -278.201 915.887 -271.547C918.003 -278.73 921.47 -284.707 925.824 -289.495H845.674C840.529 -285.393 835.905 -280.553 832.01 -275.033C828.376 -269.884 825.541 -264.37 823.505 -258.628C821.199 -260.791 818.732 -262.8 816.109 -264.633C804.576 -272.695 790.877 -276.957 776.494 -276.957C762.109 -276.957 748.411 -272.695 736.879 -264.633C734.254 -262.8 731.789 -260.791 729.483 -258.629C727.447 -264.37 724.613 -269.884 720.978 -275.033C717.083 -280.553 712.46 -285.393 707.314 -289.495H627.162C631.517 -284.707 634.983 -278.73 637.099 -271.547C645.746 -278.201 655.211 -281.122 664.364 -281.122C682.076 -281.122 698.625 -270.186 705.89 -254.224C683.587 -254.177 662.483 -243.114 649.419 -224.598C642.783 -215.193 638.79 -204.577 637.536 -193.558C636.238 -194.617 634.903 -195.643 633.52 -196.61C621.987 -204.672 608.287 -208.932 593.903 -208.932C579.52 -208.932 565.821 -204.672 554.288 -196.61C552.903 -195.643 551.569 -194.619 550.272 -193.558C549.018 -204.577 545.025 -215.193 538.387 -224.6C525.322 -243.114 504.221 -254.177 481.916 -254.224C489.185 -270.185 505.734 -281.122 523.443 -281.122C532.595 -281.122 542.058 -278.201 550.707 -271.547C552.823 -278.73 556.29 -284.707 560.646 -289.495H480.494C475.349 -285.393 470.725 -280.553 466.83 -275.033C463.196 -269.884 460.359 -264.37 458.325 -258.628C456.018 -260.791 453.552 -262.8 450.929 -264.633C439.396 -272.695 425.696 -276.957 411.312 -276.957C396.929 -276.957 383.231 -272.695 371.697 -264.633C369.073 -262.8 366.609 -260.791 364.301 -258.629C362.267 -264.37 359.431 -269.884 355.798 -275.033C351.901 -280.553 347.278 -285.393 342.134 -289.495H261.98C266.337 -284.707 269.802 -278.73 271.919 -271.547C280.565 -278.201 290.031 -281.122 299.182 -281.122C316.896 -281.122 333.443 -270.186 340.711 -254.224C318.406 -254.177 297.304 -243.114 284.239 -224.598C277.602 -215.192 273.61 -204.577 272.354 -193.558C271.058 -194.617 269.723 -195.643 268.338 -196.61C256.805 -204.672 243.107 -208.932 228.723 -208.932C214.34 -208.932 200.64 -204.672 189.108 -196.61C187.723 -195.643 186.389 -194.619 185.092 -193.558C183.836 -204.577 179.845 -215.195 173.207 -224.6C160.143 -243.114 139.041 -254.177 116.736 -254.224C124.005 -270.185 140.552 -281.122 158.263 -281.122C167.417 -281.122 176.878 -278.201 185.527 -271.547C187.643 -278.73 191.108 -284.707 195.464 -289.495H115.314C110.169 -285.393 105.545 -280.553 101.65 -275.033C98.0163 -269.884 95.1793 -264.37 93.1448 -258.628C90.8376 -260.791 88.3734 -262.8 85.749 -264.633C74.214 -272.695 60.5158 -276.957 46.1324 -276.957C31.7489 -276.957 18.0507 -272.695 6.51728 -264.633C4.21829 -263.026 2.05626 -261.268 0.000976562 -259.408V-223.204C0.986821 -222.549 1.96796 -221.86 2.93614 -221.112H2.93771C9.28094 -242.648 27.7067 -253.416 46.1324 -253.416C64.5581 -253.416 82.9838 -242.648 89.3282 -221.112C97.974 -227.767 107.44 -230.689 116.592 -230.689C140.298 -230.689 161.908 -211.101 161.978 -186.094C160.743 -186.162 159.506 -186.205 158.263 -186.205C135.906 -186.205 114.743 -175.127 101.65 -156.575C98.0163 -151.425 95.1793 -145.913 93.1448 -140.172C90.8376 -142.334 88.3734 -144.343 85.749 -146.176C74.214 -154.239 60.5158 -158.5 46.1324 -158.5C31.7489 -158.5 18.0507 -154.239 6.51728 -146.176C4.21829 -144.571 2.05626 -142.813 0.000976562 -140.951V-104.746C0.986821 -104.092 1.96796 -103.401 2.93614 -102.657H2.93771C9.28094 -124.193 27.7067 -134.96 46.1324 -134.96C64.5581 -134.96 82.9838 -124.193 89.3282 -102.657C97.974 -109.312 107.44 -112.234 116.592 -112.234C140.298 -112.234 161.908 -92.6452 161.978 -67.6381C160.743 -67.7052 159.507 -67.7492 158.263 -67.7492C135.906 -67.7492 114.743 -56.6716 101.65 -38.1183C98.0163 -32.9693 95.1793 -27.4558 93.1448 -21.7135C90.8376 -23.8781 88.3734 -25.8861 85.749 -27.7207C74.214 -35.7818 60.5158 -40.0427 46.1324 -40.0427C31.7489 -40.0427 18.0507 -35.7818 6.51728 -27.7207C4.21829 -26.1133 2.05626 -24.3541 0.000976562 -22.4948V13.7107C0.986821 14.3633 1.96796 15.0548 2.93614 15.8004H2.93771C9.28094 -5.73531 27.7067 -16.5026 46.1324 -16.5026C64.5581 -16.5026 82.9838 -5.73531 89.3282 15.8004C97.974 9.14569 107.44 6.22528 116.592 6.22528C140.298 6.22528 161.908 25.8122 161.978 50.8192C160.743 50.7505 159.506 50.7078 158.263 50.7078C135.906 50.7078 114.743 61.7839 101.65 80.3391C98.0163 85.4861 95.1793 90.9996 93.1448 96.7423C90.8376 94.5789 88.3718 92.5693 85.749 90.7363C74.214 82.6756 60.5158 78.4147 46.1324 78.4147C31.7489 78.4147 18.0507 82.6756 6.51728 90.7363C4.21829 92.3436 2.05626 94.1013 0.000976562 95.9606V132.166C0.986821 132.819 1.96796 133.51 2.93614 134.256H2.93771C9.28094 112.72 27.7067 101.955 46.1324 101.955C64.5581 101.955 82.9838 112.72 89.3282 134.256C97.974 127.603 107.44 124.681 116.592 124.681C140.298 124.681 161.908 144.268 161.978 169.275C160.743 169.206 159.506 169.165 158.263 169.165C135.906 169.165 114.743 180.241 101.65 198.794C98.0163 203.945 95.1793 209.459 93.1448 215.199C90.8376 213.036 88.3718 211.028 85.749 209.192C74.214 201.133 60.5158 196.87 46.1324 196.87C31.7489 196.87 18.0507 201.133 6.51728 209.192C4.21829 210.801 2.05626 212.559 0.000976562 214.419V250.623C0.986821 251.278 1.96796 251.969 2.93614 252.715H2.93771C9.28094 231.179 27.7067 220.41 46.1324 220.41C64.5581 220.41 82.9838 231.179 89.3282 252.715C97.974 246.058 107.44 243.138 116.592 243.138C140.298 243.138 161.908 262.727 161.978 287.734C160.743 287.665 159.506 287.621 158.263 287.621C135.906 287.621 114.743 298.698 101.65 317.251C98.0163 322.4 95.1793 327.914 93.1448 333.657C90.8376 331.492 88.3734 329.484 85.749 327.649C74.214 319.588 60.5158 315.329 46.1324 315.329C31.7489 315.329 18.0507 319.588 6.51728 327.651C4.21829 329.256 2.05626 331.014 0.000976562 332.875V369.08C0.986821 369.733 1.96796 370.424 2.93614 371.17H2.93771C9.28094 349.634 27.7067 338.868 46.1324 338.868C64.5581 338.868 82.9838 349.634 89.3282 371.17C97.974 364.517 107.44 361.593 116.592 361.593C140.298 361.593 161.908 381.182 161.978 406.189C160.743 406.12 159.506 406.079 158.263 406.079C135.906 406.079 114.742 417.156 101.65 435.709C98.0163 440.858 95.1793 446.371 93.1448 452.114C90.8376 449.951 88.3734 447.941 85.749 446.106C74.214 438.045 60.5158 433.784 46.1324 433.784C31.7489 433.784 18.0507 438.045 6.51728 446.106C4.21829 447.714 2.05626 449.471 0.000976562 451.332V487.538C0.986821 488.192 1.96796 488.879 2.93614 489.631H2.93771C9.28094 468.096 27.7067 457.323 46.1324 457.323C64.5581 457.323 82.9838 468.096 89.3282 489.631C97.974 482.976 107.44 480.049 116.592 480.049C140.298 480.049 161.908 499.637 161.978 524.654C160.743 524.574 159.506 524.54 158.263 524.54C135.906 524.54 114.742 535.611 101.65 554.168C98.0163 559.318 95.1793 564.828 93.1448 570.567C90.8376 568.409 88.3734 566.398 85.749 564.567C74.214 556.506 60.5158 552.238 46.1324 552.238C31.7489 552.238 18.0507 556.506 6.51728 564.567C4.21829 566.169 2.05626 567.935 0.000976562 569.783V606C0.986821 606.654 1.96796 607.341 2.93614 608.077H2.93771C9.28094 586.542 27.7067 575.783 46.1324 575.783C64.5581 575.783 82.9838 586.542 89.3282 608.077C97.974 601.438 107.44 598.511 116.592 598.511C140.298 598.511 161.908 618.099 161.978 643.1C160.743 643.035 159.506 642.986 158.263 642.986C135.906 642.986 114.742 654.071 101.65 672.63C98.0163 677.764 95.1793 683.29 93.1448 689.029C90.8376 686.871 88.3734 684.86 85.749 683.012C74.214 674.951 60.5158 670.7 46.1324 670.7C31.7489 670.7 18.0507 674.951 6.51728 683.012C4.21829 684.631 2.05626 686.381 0.000976562 688.245V724.445C0.986821 725.1 1.96796 725.803 2.93614 726.539H2.93771C9.28094 705.005 27.7067 694.229 46.1324 694.229C64.5581 694.229 82.9838 705.005 89.3282 726.539C97.974 719.884 107.44 716.957 116.592 716.957C140.298 716.957 161.908 736.545 161.978 761.562C160.743 761.497 159.506 761.448 158.263 761.448C135.906 761.448 114.743 772.517 101.65 791.075C98.0163 796.226 95.1793 801.736 93.1448 807.475C90.8376 805.317 88.3718 803.306 85.749 801.475C74.214 793.413 60.5158 789.162 46.1324 789.162C31.7489 789.162 18.0507 793.413 6.51728 801.475C4.21829 803.077 2.05626 804.843 0.000976562 806.707V842.908C0.986821 843.562 1.96796 844.248 2.93614 845.001H2.93771C9.28094 823.467 27.7067 812.691 46.1324 812.691C64.5581 812.691 82.9838 823.467 89.3282 845.001C97.974 838.346 107.44 835.419 116.592 835.419C140.298 835.419 161.908 855.007 161.978 880.024C160.743 879.942 159.506 879.91 158.263 879.91C135.906 879.91 114.743 890.979 101.65 909.537C98.0163 914.688 95.1793 920.198 93.1448 925.938C90.8376 923.779 88.3718 921.768 85.749 919.937C74.214 911.876 60.5158 907.608 46.1324 907.608C31.7489 907.608 18.0507 911.876 6.51728 919.937C4.21829 921.539 2.05626 923.305 0.000976562 925.153V961.37C0.986821 962.024 1.96796 962.711 2.93614 963.446H2.93771C9.28094 941.912 27.7067 931.153 46.1324 931.153C64.5581 931.153 82.9838 941.912 89.3282 963.446C97.974 956.808 107.44 953.881 116.592 953.881C140.298 953.881 161.908 973.47 161.978 998.47C160.743 998.404 159.506 998.355 158.263 998.355C135.906 998.355 114.742 1009.44 101.65 1028C100.935 1029 100.262 1030.03 99.6089 1031.07H131.138C138.884 1025.3 148.393 1021.9 158.263 1021.9C167.224 1021.9 176.478 1024.71 184.977 1031.07H185.654C192.114 1009.82 210.414 999.173 228.723 999.173C247.031 999.173 265.332 1009.82 271.79 1031.07H272.467C280.965 1024.71 290.224 1021.9 299.182 1021.9C309.055 1021.9 318.564 1025.3 326.31 1031.07H357.839C357.185 1030.03 356.511 1029 355.798 1028C342.705 1009.44 321.54 998.355 299.182 998.355C297.939 998.355 296.701 998.404 295.468 998.47C295.54 973.47 317.151 953.881 340.854 953.881C350.008 953.881 359.468 956.792 368.116 963.446C374.462 941.912 392.887 931.153 411.312 931.153C429.738 931.153 448.164 941.912 454.509 963.446C463.156 956.808 472.622 953.881 481.773 953.881C505.479 953.881 527.088 973.47 527.156 998.47C525.922 998.404 524.686 998.355 523.445 998.355C501.086 998.355 479.922 1009.44 466.83 1028C466.117 1029 465.442 1030.03 464.789 1031.07H496.318C504.064 1025.3 513.573 1021.9 523.445 1021.9C532.404 1021.9 541.658 1024.71 550.159 1031.07H550.836C557.294 1009.82 575.595 999.173 593.903 999.173C612.211 999.173 630.514 1009.82 636.97 1031.07H637.649C646.147 1024.71 655.404 1021.9 664.364 1021.9C674.235 1021.9 683.744 1025.3 691.49 1031.07H723.019C722.366 1030.03 721.691 1029 720.978 1028C707.885 1009.44 686.722 998.355 664.364 998.355C663.121 998.355 661.883 998.404 660.648 998.47C660.72 973.47 682.331 953.881 706.034 953.881C715.188 953.881 724.649 956.792 733.298 963.446C739.642 941.912 758.068 931.153 776.494 931.153C794.92 931.153 813.344 941.912 819.689 963.446C828.335 956.808 837.802 953.881 846.953 953.881C870.658 953.881 892.268 973.47 892.34 998.47C891.105 998.404 889.866 998.355 888.623 998.355C866.268 998.355 845.103 1009.44 832.01 1028C831.297 1029 830.623 1030.03 829.969 1031.07H861.499C869.244 1025.3 878.753 1021.9 888.623 1021.9C897.586 1021.9 906.84 1024.71 915.338 1031.07H916.016C922.474 1009.82 940.775 999.173 959.083 999.173C977.393 999.173 995.694 1009.82 1002.15 1031.07H1002.83C1011.33 1024.71 1020.58 1021.9 1029.54 1021.9C1039.42 1021.9 1048.93 1025.3 1056.67 1031.07H1088.2C1087.55 1030.03 1086.87 1029 1086.16 1027.98C1073.07 1009.44 1051.9 998.355 1029.54 998.355C1028.3 998.355 1027.06 998.404 1025.83 998.47C1025.9 973.47 1047.51 953.881 1071.22 953.881C1080.37 953.881 1089.83 956.792 1098.48 963.446C1104.82 941.912 1123.25 931.153 1141.67 931.153C1160.1 931.153 1178.53 941.912 1184.87 963.446C1193.52 956.808 1202.98 953.881 1212.13 953.881C1235.84 953.881 1257.45 973.47 1257.52 998.47C1256.29 998.404 1255.05 998.355 1253.8 998.355C1231.45 998.355 1210.28 1009.44 1197.19 1028C1196.48 1029 1195.8 1030.03 1195.15 1031.07H1226.68C1234.42 1025.3 1243.93 1021.9 1253.8 1021.9C1262.77 1021.9 1272.02 1024.71 1280.52 1031.07H1281.2C1287.23 1011.21 1303.62 1000.61 1320.68 999.32V975.742C1307.61 976.38 1295.22 980.566 1284.65 987.956C1283.26 988.921 1281.93 989.951 1280.63 991.014C1279.38 979.994 1275.39 969.365 1268.75 959.964C1255.68 941.454 1234.58 930.385 1212.28 930.336C1219.55 914.377 1236.1 903.438 1253.8 903.438C1262.96 903.438 1272.42 906.366 1281.07 913.02C1287 892.892 1303.5 882.166 1320.68 880.858V857.28C1307.61 857.934 1295.22 862.104 1284.65 869.494C1283.26 870.475 1281.93 871.489 1280.63 872.552C1279.38 861.531 1275.39 850.92 1268.75 841.518C1255.68 822.992 1234.58 811.939 1212.28 811.89C1219.55 795.932 1236.09 784.993 1253.8 784.993C1262.96 784.993 1272.42 787.903 1281.07 794.558C1287 774.43 1303.5 763.704 1320.68 762.396V738.818C1307.61 739.472 1295.22 743.658 1284.65 751.048C1283.26 752.013 1281.93 753.027 1280.63 754.09C1279.38 743.085 1275.39 732.458 1268.75 723.056C1255.68 704.547 1234.58 693.477 1212.28 693.428C1219.55 677.47 1236.1 666.531 1253.8 666.531C1262.96 666.531 1272.42 669.457 1281.07 676.113C1287 655.968 1303.5 645.242 1320.68 643.95V620.372C1307.61 621.01 1295.22 625.196 1284.65 632.586C1283.26 633.551 1281.93 634.581 1280.63 635.644C1279.38 624.623 1275.39 613.995 1268.75 604.594C1255.68 586.085 1234.58 575.015 1212.28 574.966C1219.55 559.007 1236.1 548.069 1253.8 548.069C1262.96 548.069 1272.42 550.995 1281.07 557.65C1287 537.506 1303.5 526.796 1320.68 525.488V501.91C1307.61 502.564 1295.22 506.75 1284.65 514.124C1283.26 515.105 1281.93 516.119 1280.63 517.182C1279.38 506.161 1275.39 495.55 1268.75 486.148C1255.68 467.622 1234.58 456.564 1212.28 456.515C1219.55 440.555 1236.1 429.618 1253.8 429.618C1262.96 429.618 1272.42 432.537 1281.07 439.193C1287 419.057 1303.5 408.336 1320.68 407.03V383.451C1307.61 384.1 1295.22 388.285 1284.65 395.674C1283.26 396.642 1281.93 397.665 1280.63 398.725C1279.38 387.706 1275.39 377.089 1268.75 367.684C1255.68 349.172 1234.58 338.107 1212.28 338.06C1219.55 322.098 1236.1 311.161 1253.8 311.161C1262.96 311.161 1272.42 314.081 1281.07 320.738C1287 300.6 1303.5 289.88 1320.68 288.572V264.994C1307.61 265.643 1295.22 269.827 1284.65 277.217C1283.26 278.184 1281.93 279.208 1280.63 280.269C1279.38 269.251 1275.39 258.632 1268.75 249.227C1255.68 230.715 1234.58 219.65 1212.28 219.603C1219.55 203.642 1236.09 192.704 1253.8 192.704C1262.96 192.704 1272.42 195.626 1281.07 202.28C1287 182.143 1303.5 171.423 1320.68 170.115V146.537C1307.61 147.188 1295.22 151.372 1284.65 158.761C1283.26 159.729 1281.93 160.751 1280.63 161.812C1279.38 150.793 1275.39 140.177 1268.75 130.771C1255.68 112.257 1234.58 101.194 1212.28 101.145C1219.55 85.1855 1236.09 74.2467 1253.8 74.2467C1262.96 74.2467 1272.42 77.1668 1281.07 83.825C1287 63.6855 1303.5 52.9677 1320.68 51.6594V28.0816C1307.61 28.7291 1295.22 32.915 1284.65 40.3023C1283.26 41.27 1281.93 42.2939 1280.63 43.3566C1279.38 32.3362 1275.39 21.7192 1268.75 12.3129C1255.68 -6.19798 1234.58 -17.2642 1212.28 -17.3102C1219.55 -33.2719 1236.1 -44.209 1253.81 -44.209C1262.96 -44.209 1272.42 -41.2886 1281.07 -34.634C1287 -54.7699 1303.5 -65.4912 1320.68 -66.7991V-90.3758C1307.61 -89.7263 1295.22 -85.5408 1284.65 -78.1535C1283.26 -77.1854 1281.93 -76.1619 1280.63 -75.1024C1279.38 -86.1196 1275.39 -96.7377 1268.75 -106.143C1255.68 -124.655 1234.58 -135.72 1212.28 -135.767C1219.55 -151.727 1236.09 -162.664 1253.8 -162.664C1262.96 -162.664 1272.42 -159.746 1281.07 -153.089C1287 -173.226 1303.5 -183.947 1320.68 -185.255V-208.833C1307.61 -208.184 1295.22 -203.999 1284.65 -196.61C1283.26 -195.643 1281.93 -194.619 1280.63 -193.558V-193.558Z" fill="#141414"/>
</g>
<defs>
<clipPath id="clip0_54_12">
<rect width="1321" height="743" fill="white"/>
</clipPath>
</defs>
</svg>
