<svg width="1080" height="1428" viewBox="0 0 1080 1428" fill="none" xmlns="http://www.w3.org/2000/svg">
<g clip-path="url(#clip0_65_50)">
<rect width="1080" height="1428" fill="#4F6D7A"/>
<rect width="1080" height="1080" transform="translate(0 148)" fill="#4F6D7A"/>
<path d="M751.54 688C703.116 623.866 626.242 582.415 539.688 582.415C453.133 582.415 376.259 623.866 327.835 688C376.259 752.134 453.133 793.585 539.688 793.585C626.242 793.585 703.116 752.134 751.54 688Z" fill="#E8DAB2"/>
<path fill-rule="evenodd" clip-rule="evenodd" d="M327.835 688C376.259 752.134 453.133 793.585 539.688 793.585C626.242 793.585 703.116 752.134 751.54 688C785.087 732.43 804.98 787.746 804.98 847.708C804.98 994.225 686.205 1113 539.688 1113C393.171 1113 274.395 994.225 274.395 847.708C274.395 787.746 294.288 732.43 327.835 688Z" fill="#C0D6DF"/>
<path d="M539.688 263C393.171 263 274.395 381.775 274.395 528.292C274.395 588.254 294.288 643.57 327.835 688C376.259 623.866 453.133 582.415 539.688 582.415C626.242 582.415 703.116 623.866 751.54 688C785.087 643.57 804.98 588.254 804.98 528.292C804.98 381.775 686.205 263 539.688 263Z" fill="#DD6E42"/>
<ellipse cx="539.689" cy="688" rx="95.8247" ry="95.8246" fill="#1E6287"/>
<ellipse cx="539.688" cy="688" rx="45.3456" ry="45.3456" fill="#191516"/>
</g>
<defs>
<clipPath id="clip0_65_50">
<rect width="1080" height="1428" fill="white"/>
</clipPath>
</defs>
</svg>
